<?xml version="1.0" encoding="UTF-8"?>
<svg width="65px" height="76px" viewBox="0 0 65 76" version="1.1" xmlns="http://www.w3.org/2000/svg" xmlns:xlink="http://www.w3.org/1999/xlink">
    <!-- Generator: Sketch 50 (54983) - http://www.bohemiancoding.com/sketch -->
    <title>未标题-1</title>
    <desc>Created with Sketch.</desc>
    <defs></defs>
    <g id="Page-1" stroke="none" stroke-width="1" fill="none" fill-rule="evenodd">
        <g id="APP" transform="translate(-343.000000, -12.000000)" fill="#FFFFFF" fill-rule="nonzero">
            <g id="未标题-1" transform="translate(343.000000, 12.000000)">
                <path d="M31.671554,52.365441 C31.7354253,52.2336047 31.7974236,52.1008294 31.863168,51.9699321 C32.6438593,50.4160663 33.9160415,49.5882394 35.629142,49.4293597 C36.8421355,49.3168669 38.0242235,49.5104898 39.1651042,49.90675 C40.0203433,50.2038512 40.6262781,50.83167 41.0737521,51.6072883 C41.6364193,52.5816 41.7915086,53.6481221 41.6382923,54.742063 C41.5367725,55.4658482 41.3505903,56.1830603 41.1424934,56.8854362 C40.7491508,58.2131895 39.9529131,59.2770823 38.8315123,60.070166 C36.420697,61.774836 33.7650729,62.3318538 30.8983549,61.5744523 C29.3264831,61.1592242 28.1485158,60.2068852 27.5375238,58.644005 C27.2767938,57.9769358 27.1981253,57.2781281 27.1906331,56.5676769 C27.1896966,56.4782836 27.1831408,56.3887025 27.1765851,56.299497 C27.1756486,56.2872899 27.1599149,56.2762097 27.1194568,56.2238132 C26.9933999,56.2181791 26.8332533,56.2055965 26.6729194,56.2046575 C25.8828628,56.1995868 25.1248355,56.0378901 24.4072663,55.7107408 C22.9577053,55.0500567 22.06744,53.8971462 21.672599,52.3844089 C21.1080588,50.2211289 21.1942195,48.060478 21.9809046,45.9638673 C22.8127305,43.747064 24.4494101,42.3535804 26.6701098,41.638434 C28.2047076,41.1443295 29.7743317,40.9985959 31.3688675,41.3225527 C31.5713453,41.3636811 31.7700769,41.4249043 31.9897868,41.4819958 C32.0175081,41.4200214 32.0521597,41.3708176 32.0617123,41.3172943 C32.3213184,39.8526341 33.1261722,38.7622613 34.3537756,37.9648581 C35.2232499,37.4003282 36.1882503,37.069235 37.2023249,36.9244404 C40.1666293,36.5011369 43.0569478,36.8352349 45.8526768,37.9060764 C46.9847541,38.339709 47.9915238,38.9902517 48.8018094,39.9097256 C50.0428988,41.3180455 50.5126622,42.9765164 50.3527029,44.8304881 C50.3307881,45.0836439 50.2910792,45.3351095 50.2562403,45.6141818 C50.313556,45.6449812 50.3727446,45.6909925 50.4398002,45.7105238 C51.7249065,46.0846234 52.7313015,46.8638099 53.5606924,47.8890157 C54.473809,49.0176999 55.0456542,50.3189732 55.384678,51.7199689 C56.1578771,54.9159668 56.1930906,58.1005088 54.9812209,61.199038 C53.1746548,65.8178165 49.9174038,68.8878 45.0983956,70.1828759 C42.7025649,70.8268456 40.2939973,70.7199868 37.8992904,70.1167699 C37.8269903,70.0985532 37.7546902,70.0803365 37.6812662,70.067566 C37.6533577,70.0626832 37.6226395,70.0726367 37.619268,70.0730123 C37.1498792,70.602799 36.7203866,71.1446049 36.2332037,71.6272536 C34.364452,73.4784083 32.1105992,74.5866222 29.5280244,75.0262644 C27.0145655,75.4542629 24.5449362,75.1806368 22.1020916,74.5270893 C20.3451615,74.0572111 18.6444233,73.4479845 17.0854756,72.4890725 C16.3671572,72.0471767 15.7069036,71.531475 15.1206359,70.9229997 C13.8857276,69.6410699 13.2483254,68.0849506 13.0250566,66.3376498 C12.9737348,65.9357556 12.9182922,65.534237 12.8508621,65.1347842 C12.7356689,64.4508128 12.3964578,63.8971754 11.8306064,63.4986616 C11.4144125,63.2055042 10.9837961,62.9324415 10.5522431,62.6618202 C8.92923685,61.6433753 7.45083077,60.4521533 6.20543333,58.9871175 C4.62625663,57.1293897 3.72812447,54.9708047 3.39022449,52.5618809 C3.02778742,49.979429 3.30556219,47.4379176 3.86167363,44.9159376 C3.97405722,44.4060578 4.20500549,43.9237848 4.34379922,43.4184122 C4.64892066,42.3083203 4.81056571,41.1796361 4.56837909,40.0357401 C4.47940875,39.6156292 4.30689994,39.2133594 4.16510932,38.7810414 C4.25145737,38.8287428 4.35485027,38.8711859 4.44157294,38.9359772 C5.40076685,39.653565 5.90255956,40.6259987 5.99714908,41.8108354 C6.07694143,42.8076833 5.87952093,43.7859388 5.77369305,44.7703918 C5.71281861,45.3367997 5.64969649,45.9052734 5.63995658,46.4739349 C5.63021667,47.0456013 5.89038467,47.507404 6.39592351,47.8912693 C6.41840022,47.7479771 6.44162616,47.6542644 6.44668342,47.5594249 C6.54408253,45.7450791 6.60626812,43.928292 6.74524915,42.1173267 C6.86606151,40.5454321 7.10562585,38.9861201 7.53848997,37.4634294 C7.7965976,36.5552236 8.20642308,35.7418573 8.8432634,35.0282134 C9.90191678,33.8418743 10.9315377,32.6286797 11.9525426,31.4090998 C12.5695285,30.6721686 13.1001663,29.8728874 13.5661836,29.0275949 C14.1380288,27.9907455 14.2225038,26.885912 14.0705986,25.7487768 C14.0260198,25.4156178 13.8716797,25.097295 13.7583595,24.7431023 C13.9200046,24.6738037 14.0882054,24.767892 14.2461043,24.8627315 C14.553848,25.0473399 14.7774914,25.3232196 14.8754524,25.6590079 C15.0046935,26.1022183 15.1290647,26.5589504 15.1609067,27.0164337 C15.2704807,28.5898307 15.0009474,30.129048 14.6619236,31.6573728 C14.2316818,33.5975452 13.5377131,35.4530194 12.86491,37.3161934 C12.4369159,38.5014057 12.0402018,39.697886 11.6255064,40.8879811 C10.9710593,42.766367 10.6940338,44.7010932 10.7367395,46.6878403 C10.8315163,51.0979719 12.0748534,55.1174773 14.8061492,58.6171495 C16.9279513,61.335945 19.6761046,63.209448 22.8531886,64.4793586 C25.2986554,65.4570508 27.8362768,65.9994201 30.4720465,65.9857107 C33.3840925,65.9704988 36.1485414,65.3312241 38.662375,63.8077821 C41.9027684,61.8441346 43.9181807,59.0030806 44.6329403,55.2624597 C44.9174581,53.7748877 44.9283218,52.2737941 44.7222852,50.7766443 C44.6700269,50.3978496 44.532357,50.0168014 44.3649054,49.6703085 C43.6501458,48.1928778 42.5291195,47.1038196 41.0252399,46.4737471 C39.0148848,45.6312717 36.9470268,45.5625365 34.8821657,46.2821901 C33.4547069,46.779675 32.3894978,47.7045951 31.8545519,49.1551702 C31.7105136,49.545233 31.6116161,49.9636537 31.5705961,50.3768159 C31.5174012,50.9126123 31.5398779,51.4561084 31.536881,51.996412 C31.5361318,52.1109706 31.5661007,52.2259049 31.5820217,52.3406513 C31.612178,52.3489145 31.6419596,52.3571778 31.671554,52.365441 Z" id="Shape"></path>
                <path d="M64.5390071,16.1212121 C64.4135868,16.3048392 64.3440119,16.416816 64.2647893,16.5212902 C61.4164861,20.2872386 58.5655854,24.0511238 55.7232193,27.8215738 C55.5367586,28.0689733 55.336754,28.1725096 55.0278415,28.2085223 C53.3637957,28.4030281 51.6973379,28.5892811 50.0433109,28.8529988 C46.7309896,29.3808093 43.4637528,30.1260086 40.2508772,31.1000384 C36.5350215,32.2265593 32.9332686,33.6366798 29.543209,35.5642947 C26.9162467,37.0580697 24.4891035,38.8195012 22.4094637,41.0404691 C20.1251809,43.4799514 18.4654024,46.2816235 17.6184441,49.5501471 C17.213982,51.1105079 17.0098957,52.6969404 17.0037731,54.3098197 C17.0032165,54.4703761 17.0037731,54.6311201 16.9286322,54.8121212 C16.8803936,54.6997692 16.8236205,54.5904183 16.7854007,54.4746901 C16.2575592,52.8753156 16.0881676,51.2281117 16.1453118,49.5507098 C16.2453141,46.6085508 17.1245551,43.8974731 18.5329364,41.346014 C20.0018015,38.685204 21.9402506,36.4064657 24.1501347,34.3539319 C27.150946,31.56689 30.5170719,29.3027818 34.0724415,27.3140204 C38.7295063,24.7089175 43.6184873,22.6351887 48.6273227,20.8384948 C53.7153808,19.0136661 58.8978751,17.5097626 64.1339885,16.189111 C64.232692,16.1643523 64.3352918,16.1547864 64.5390071,16.1212121 Z" id="Shape"></path>
                <path d="M14.5240688,52.6626263 C13.9413981,51.5962162 13.5970587,50.457754 13.3536883,49.2880881 C12.5619877,45.486532 12.8663874,41.7400079 13.9361723,38.0375472 C14.9699369,34.4597122 16.659346,31.206963 18.7492713,28.1571324 C21.154421,24.6471891 24.0054388,21.5393007 27.1169974,18.6689386 C31.1133869,14.9821743 35.4613944,11.7663022 40.0072337,8.81726903 C42.9739645,6.89266272 46.0172151,5.09911194 49.1168292,3.40352186 C49.2329154,3.33997978 49.3540407,3.28570426 49.4787121,3.22424242 C49.5373151,3.64218287 47.4205146,16.9376061 46.8686385,19.6479783 C45.972423,19.9216253 45.0515719,20.2030259 44.0693182,20.5029597 C44.3985402,17.9673282 44.7202969,15.4871069 45.0530649,12.9242431 C44.8449683,12.9945933 44.6954746,13.0361982 44.5525131,13.0944451 C42.1833837,14.0600578 39.8896544,15.186795 37.6528484,16.4330518 C33.4130885,18.7950772 29.4366689,21.5385442 25.8521802,24.8446234 C22.7633909,27.6936156 20.0766108,30.8777167 18.0060955,34.5705326 C16.3172463,37.5829188 15.1550777,40.7887679 14.6086139,44.2130429 C14.2424384,46.507744 14.1653586,48.8158721 14.3781212,51.131943 C14.4247796,51.6423599 14.4753574,52.1523985 14.5240688,52.6626263 Z" id="Shape"></path>
                <path d="M27.9669031,0 C27.9669031,5.0459512 27.9669031,10.0328251 27.9669031,15.0504567 C27.1613857,15.5860909 26.3395097,16.1324152 25.441482,16.7293772 C25.441482,14.8700365 25.441482,13.0935916 25.441482,11.3150837 C25.1840699,11.2616328 25.0580903,11.4165466 24.9170683,11.5056315 C22.9846915,12.7269373 21.1352356,14.0645223 19.3461371,15.4857532 C15.5212458,18.5247643 12.0156281,21.8859811 8.99192939,25.7299438 C6.58459066,28.7899601 4.56214784,32.0759706 3.13331343,35.7087554 C1.66894148,39.4317502 0.973609242,43.2834023 1.20112466,47.2849045 C1.30002805,49.0255279 1.5894051,50.7391445 2.04274367,52.4242541 C2.06173462,52.4945842 2.07546076,52.5660396 2.0333422,52.6626263 C1.96677984,52.5281551 1.89514069,52.396122 1.83421921,52.2592127 C1.07928169,50.5624753 0.616165602,48.7817168 0.32077162,46.9551969 C-0.00433098589,44.9471315 -0.064500352,42.9238748 0.0605391119,40.8985551 C0.236346478,38.0562808 0.812468159,35.2873373 1.69564164,32.5812221 C3.00770987,28.5617155 4.9235401,24.8372202 7.24062478,21.3098368 C9.8380611,17.3555965 12.8687169,13.7524441 16.1725791,10.37191 C19.7270844,6.7349992 23.5585569,3.40866616 27.5690331,0.284133658 C27.6831669,0.194861301 27.8046338,0.115341386 27.9669031,0 Z" id="Shape"></path>
            </g>
        </g>
    </g>
</svg>