<?xml version="1.0" encoding="UTF-8"?>
<svg width="24px" height="24px" viewBox="0 0 24 24" version="1.1" xmlns="http://www.w3.org/2000/svg" xmlns:xlink="http://www.w3.org/1999/xlink">
    <!-- Generator: Sketch 50 (54983) - http://www.bohemiancoding.com/sketch -->
    <title>logo</title>
    <desc>Created with Sketch.</desc>
    <defs></defs>
    <g id="Page-1" stroke="none" stroke-width="1" fill="none" fill-rule="evenodd">
        <g id="logo" fill-rule="nonzero">
            <circle id="Oval" fill="#ED2630" cx="12" cy="12" r="12"></circle>
            <g id="Artboard" transform="translate(5.000000, 3.000000)" fill="#FFFFFF">
                <g id="未标题-1">
                    <path d="M6.762,12.433 C6.776,12.403 6.788,12.372 6.801,12.342 C6.96,11.988 7.218,11.798 7.568,11.762 C7.814,11.736 8.054,11.781 8.287,11.87 C8.461,11.938 8.585,12.082 8.676,12.259 C8.79,12.483 8.822,12.726 8.791,12.976 C8.77,13.142 8.731,13.306 8.689,13.466 C8.609,13.77 8.448,14.013 8.219,14.195 C7.729,14.584 7.187,14.713 6.605,14.539 C6.285,14.444 6.045,14.226 5.921,13.869 C5.868,13.717 5.852,13.556 5.85,13.394 C5.85,13.373 5.849,13.353 5.848,13.332 C5.848,13.329 5.844,13.326 5.836,13.314 C5.81,13.313 5.777,13.31 5.745,13.31 C5.584,13.308 5.43,13.271 5.285,13.197 C4.99,13.046 4.809,12.783 4.728,12.437 C4.613,11.942 4.631,11.447 4.791,10.968 C4.96,10.461 5.293,10.143 5.746,9.98 C6.058,9.867 6.377,9.834 6.702,9.908 C6.744,9.918 6.784,9.931 6.828,9.945 C6.834,9.929 6.841,9.919 6.843,9.906 C6.896,9.572 7.06,9.322 7.31,9.139 C7.485,9.01 7.683,8.934 7.889,8.902 C8.493,8.805 9.081,8.881 9.65,9.126 C9.88,9.225 10.086,9.374 10.25,9.584 C10.503,9.906 10.598,10.286 10.565,10.71 C10.56,10.768 10.552,10.825 10.545,10.889 C10.557,10.897 10.569,10.907 10.582,10.912 C10.844,10.996 11.048,11.175 11.217,11.409 C11.405,11.667 11.521,11.965 11.59,12.285 C11.746,13.015 11.754,13.744 11.507,14.452 C11.139,15.508 10.476,16.211 9.496,16.507 C9.008,16.654 8.518,16.63 8.03,16.491 C8.015,16.487 8,16.483 7.985,16.479 C7.979,16.478 7.972,16.481 7.972,16.481 C7.877,16.602 7.79,16.726 7.691,16.836 C7.31,17.259 6.851,17.513 6.326,17.613 C5.814,17.711 5.312,17.648 4.815,17.499 C4.458,17.391 4.111,17.252 3.794,17.033 C3.648,16.931 3.514,16.813 3.395,16.675 C3.144,16.381 3.014,16.027 2.968,15.626 C2.958,15.534 2.947,15.442 2.933,15.351 C2.91,15.195 2.841,15.069 2.725,14.978 C2.64,14.91 2.553,14.848 2.465,14.786 C2.134,14.555 1.834,14.281 1.581,13.947 C1.26,13.521 1.077,13.028 1.008,12.477 C0.934,11.886 0.991,11.306 1.104,10.729 C1.127,10.612 1.174,10.501 1.202,10.386 C1.264,10.132 1.297,9.874 1.248,9.613 C1.23,9.517 1.195,9.425 1.166,9.326 C1.184,9.337 1.205,9.347 1.222,9.362 C1.417,9.526 1.519,9.749 1.538,10.019 C1.554,10.248 1.514,10.471 1.492,10.695 C1.48,10.826 1.467,10.955 1.465,11.086 C1.463,11.216 1.516,11.322 1.619,11.409 C1.623,11.377 1.628,11.355 1.629,11.334 C1.649,10.92 1.662,10.504 1.69,10.09 C1.715,9.73 1.764,9.374 1.852,9.026 C1.904,8.818 1.988,8.632 2.118,8.469 C2.333,8.197 2.542,7.92 2.75,7.641 C2.875,7.473 2.984,7.29 3.079,7.097 C3.196,6.86 3.212,6.607 3.182,6.347 C3.172,6.271 3.141,6.198 3.118,6.117 C3.15,6.101 3.185,6.123 3.217,6.145 C3.28,6.187 3.325,6.25 3.345,6.327 C3.371,6.428 3.397,6.533 3.403,6.637 C3.426,6.997 3.37,7.349 3.301,7.698 C3.214,8.142 3.073,8.566 2.936,8.992 C2.849,9.263 2.769,9.536 2.684,9.809 C2.551,10.239 2.495,10.68 2.503,11.135 C2.522,12.143 2.775,13.062 3.331,13.862 C3.763,14.484 4.322,14.913 4.968,15.203 C5.466,15.427 5.982,15.551 6.518,15.548 C7.111,15.545 7.674,15.399 8.185,15.05 C8.844,14.601 9.254,13.951 9.4,13.096 C9.458,12.756 9.46,12.412 9.418,12.072 C9.407,11.984 9.38,11.897 9.346,11.818 C9.2,11.48 8.972,11.231 8.666,11.088 C8.257,10.895 7.836,10.879 7.416,11.044 C7.126,11.157 6.909,11.369 6.8,11.7 C6.771,11.79 6.751,11.885 6.742,11.98 C6.731,12.102 6.736,12.226 6.735,12.35 C6.735,12.375 6.741,12.402 6.744,12.428 C6.75,12.429 6.756,12.431 6.762,12.433 Z" id="Shape"></path>
                    <path d="M13.35,4.462 C13.324,4.501 13.31,4.525 13.293,4.547 C12.711,5.35 12.128,6.153 11.547,6.956 C11.508,7.009 11.468,7.031 11.404,7.039 C11.063,7.08 10.723,7.12 10.384,7.176 C9.705,7.289 9.038,7.447 8.381,7.655 C7.62,7.895 6.884,8.196 6.191,8.607 C5.654,8.925 5.157,9.301 4.732,9.775 C4.265,10.295 3.925,10.892 3.752,11.589 C3.669,11.921 3.627,12.259 3.627,12.603 C3.627,12.638 3.627,12.672 3.611,12.71 C3.602,12.686 3.59,12.663 3.582,12.638 C3.474,12.298 3.439,11.947 3.451,11.589 C3.472,10.961 3.652,10.384 3.94,9.839 C4.24,9.272 4.637,8.786 5.089,8.348 C5.702,7.754 6.391,7.271 7.118,6.847 C8.071,6.292 9.07,5.849 10.095,5.466 C11.136,5.077 12.197,4.757 13.266,4.475 C13.287,4.471 13.308,4.469 13.35,4.462 Z" id="Shape_1_"></path>
                    <path d="M3.608,12.466 C3.477,12.217 3.399,11.95 3.344,11.679 C3.165,10.789 3.234,9.914 3.475,9.05 C3.708,8.214 4.09,7.454 4.561,6.742 C5.103,5.922 5.747,5.196 6.449,4.525 C7.351,3.664 8.33,2.913 9.357,2.224 C10.026,1.774 10.712,1.355 11.412,0.959 C11.437,0.944 11.465,0.932 11.494,0.917 C11.507,1.015 11.03,4.121 10.904,4.754 C10.703,4.818 10.495,4.883 10.273,4.954 C10.346,4.361 10.42,3.782 10.495,3.183 C10.448,3.199 10.415,3.209 10.383,3.223 C9.848,3.449 9.33,3.712 8.826,4.003 C7.87,4.554 6.972,5.196 6.164,5.968 C5.467,6.633 4.86,7.377 4.394,8.24 C4.013,8.944 3.75,9.693 3.627,10.492 C3.544,11.028 3.527,11.567 3.575,12.108 C3.585,12.228 3.597,12.347 3.608,12.466 Z" id="Shape_2_"></path>
                    <path d="M5.925,1.162 C5.925,2.268 5.925,3.362 5.925,4.462 C5.758,4.58 5.589,4.7 5.403,4.831 C5.403,4.423 5.403,4.034 5.403,3.643 C5.35,3.631 5.324,3.666 5.295,3.685 C4.896,3.953 4.514,4.246 4.145,4.558 C3.355,5.225 2.631,5.962 2.007,6.805 C1.509,7.476 1.092,8.196 0.797,8.993 C0.495,9.809 0.351,10.654 0.398,11.531 C0.418,11.914 0.478,12.289 0.572,12.659 C0.576,12.674 0.579,12.69 0.57,12.711 C0.556,12.682 0.541,12.653 0.528,12.622 C0.372,12.25 0.277,11.86 0.215,11.459 C0.148,11.02 0.136,10.576 0.162,10.131 C0.199,9.508 0.317,8.9 0.5,8.307 C0.771,7.425 1.167,6.608 1.645,5.835 C2.181,4.967 2.807,4.178 3.489,3.436 C4.223,2.639 5.014,1.91 5.842,1.224 C5.866,1.205 5.891,1.188 5.925,1.162 Z" id="Shape_3_"></path>
                </g>
            </g>
        </g>
    </g>
</svg>