<?xml version="1.0" encoding="utf-8"?>
<!-- Generator: Adobe Illustrator 16.0.0, SVG Export Plug-In . SVG Version: 6.00 Build 0)  -->
<!DOCTYPE svg PUBLIC "-//W3C//DTD SVG 1.1//EN" "http://www.w3.org/Graphics/SVG/1.1/DTD/svg11.dtd">
<svg version="1.1" id="图层_1" xmlns="http://www.w3.org/2000/svg" xmlns:xlink="http://www.w3.org/1999/xlink" x="0px" y="0px"
	 width="24px" height="24px" viewBox="0 0 24 24" enable-background="new 0 0 24 24" xml:space="preserve">
<title>Artboard</title>
<desc>Created with Sketch.</desc>
<circle fill="#ED2630" cx="12" cy="12" r="12"/>
<g id="Artboard">
	<g id="未标题-1" transform="translate(4.000000, 2.000000)">
		<path id="Shape" fill="#FFFFFF" d="M7.762,13.433c0.014-0.03,0.026-0.061,0.039-0.091c0.159-0.354,0.417-0.544,0.767-0.58
			c0.246-0.026,0.486,0.019,0.719,0.108c0.174,0.068,0.298,0.212,0.389,0.389c0.114,0.224,0.146,0.467,0.115,0.717
			c-0.021,0.166-0.06,0.33-0.102,0.49c-0.08,0.304-0.241,0.547-0.47,0.729c-0.49,0.389-1.032,0.518-1.614,0.344
			c-0.32-0.095-0.56-0.313-0.684-0.67c-0.053-0.152-0.069-0.313-0.071-0.475c0-0.021-0.001-0.041-0.002-0.062
			c0-0.003-0.004-0.006-0.012-0.018c-0.026-0.001-0.059-0.004-0.091-0.004c-0.161-0.002-0.315-0.039-0.46-0.113
			c-0.295-0.151-0.476-0.414-0.557-0.76c-0.115-0.495-0.097-0.99,0.063-1.469c0.169-0.507,0.502-0.825,0.955-0.988
			c0.312-0.113,0.631-0.146,0.956-0.072c0.042,0.01,0.082,0.023,0.126,0.037c0.006-0.016,0.013-0.026,0.015-0.039
			c0.053-0.334,0.217-0.584,0.467-0.767c0.175-0.129,0.373-0.205,0.579-0.237c0.604-0.097,1.192-0.021,1.761,0.224
			c0.23,0.099,0.436,0.248,0.6,0.458c0.253,0.322,0.348,0.702,0.315,1.126c-0.005,0.058-0.013,0.115-0.02,0.179
			c0.012,0.008,0.024,0.018,0.037,0.023c0.262,0.084,0.466,0.263,0.635,0.497c0.188,0.258,0.304,0.556,0.373,0.876
			c0.156,0.73,0.164,1.459-0.083,2.167c-0.368,1.056-1.031,1.759-2.011,2.055c-0.488,0.147-0.978,0.123-1.466-0.016
			C9.015,17.487,9,17.483,8.985,17.479c-0.006-0.001-0.013,0.002-0.013,0.002c-0.095,0.121-0.182,0.245-0.281,0.355
			c-0.381,0.423-0.84,0.677-1.365,0.777c-0.512,0.098-1.014,0.035-1.511-0.114c-0.357-0.108-0.704-0.247-1.021-0.466
			c-0.146-0.102-0.28-0.22-0.399-0.358c-0.251-0.294-0.381-0.648-0.427-1.049c-0.01-0.092-0.021-0.184-0.035-0.275
			c-0.023-0.156-0.092-0.282-0.208-0.373c-0.085-0.068-0.172-0.13-0.26-0.192c-0.331-0.231-0.631-0.505-0.884-0.839
			c-0.321-0.426-0.504-0.919-0.573-1.47c-0.074-0.591-0.017-1.171,0.096-1.748c0.023-0.117,0.07-0.228,0.098-0.343
			c0.062-0.254,0.095-0.512,0.046-0.773c-0.018-0.096-0.053-0.188-0.082-0.287c0.018,0.011,0.039,0.021,0.056,0.036
			c0.195,0.164,0.297,0.387,0.316,0.657c0.016,0.229-0.024,0.452-0.046,0.676c-0.012,0.131-0.025,0.26-0.027,0.391
			c-0.002,0.13,0.051,0.236,0.154,0.323c0.004-0.032,0.009-0.054,0.01-0.075c0.02-0.414,0.033-0.83,0.061-1.244
			c0.025-0.36,0.074-0.716,0.162-1.064c0.052-0.208,0.136-0.394,0.266-0.557C3.333,9.197,3.542,8.92,3.75,8.641
			C3.875,8.473,3.984,8.29,4.079,8.097c0.117-0.237,0.133-0.49,0.103-0.75C4.172,7.271,4.141,7.198,4.118,7.117
			C4.15,7.101,4.185,7.123,4.217,7.145C4.28,7.187,4.325,7.25,4.345,7.327c0.026,0.101,0.052,0.206,0.058,0.31
			c0.023,0.36-0.033,0.712-0.102,1.061C4.214,9.142,4.073,9.566,3.936,9.992c-0.087,0.271-0.167,0.544-0.252,0.817
			c-0.133,0.43-0.189,0.871-0.181,1.326c0.019,1.008,0.272,1.927,0.828,2.727c0.432,0.622,0.991,1.051,1.637,1.341
			c0.498,0.224,1.014,0.348,1.55,0.345c0.593-0.003,1.156-0.149,1.667-0.498c0.659-0.449,1.069-1.099,1.215-1.954
			c0.058-0.34,0.06-0.684,0.018-1.024c-0.011-0.088-0.038-0.175-0.072-0.254c-0.146-0.338-0.374-0.587-0.68-0.73
			c-0.409-0.193-0.83-0.209-1.25-0.044c-0.29,0.113-0.507,0.325-0.616,0.656c-0.029,0.09-0.049,0.185-0.058,0.28
			c-0.011,0.122-0.006,0.246-0.007,0.37c0,0.025,0.006,0.052,0.009,0.078C7.75,13.429,7.756,13.431,7.762,13.433z"/>
		<path id="Shape_1_" fill="#FFFFFF" d="M14.35,5.462c-0.026,0.039-0.04,0.063-0.057,0.085c-0.582,0.803-1.165,1.606-1.746,2.409
			c-0.039,0.053-0.079,0.075-0.143,0.083c-0.341,0.041-0.681,0.081-1.02,0.137c-0.679,0.113-1.346,0.271-2.003,0.479
			c-0.761,0.24-1.497,0.541-2.19,0.952c-0.537,0.318-1.034,0.694-1.459,1.168c-0.467,0.52-0.807,1.117-0.98,1.814
			c-0.083,0.332-0.125,0.67-0.125,1.014c0,0.035,0,0.069-0.016,0.107c-0.009-0.024-0.021-0.047-0.029-0.072
			c-0.108-0.34-0.143-0.691-0.131-1.049c0.021-0.628,0.201-1.205,0.489-1.75c0.3-0.567,0.697-1.053,1.149-1.491
			c0.613-0.594,1.302-1.077,2.029-1.501c0.953-0.555,1.952-0.998,2.977-1.381c1.041-0.389,2.102-0.709,3.171-0.991
			C14.287,5.471,14.308,5.469,14.35,5.462z"/>
		<path id="Shape_2_" fill="#FFFFFF" d="M4.608,13.466c-0.131-0.249-0.209-0.516-0.264-0.787c-0.179-0.89-0.11-1.765,0.131-2.629
			C4.708,9.214,5.09,8.454,5.561,7.742c0.542-0.82,1.186-1.546,1.888-2.217c0.902-0.861,1.881-1.612,2.908-2.301
			c0.669-0.45,1.355-0.869,2.055-1.265c0.025-0.015,0.053-0.027,0.082-0.042c0.013,0.098-0.464,3.204-0.59,3.837
			c-0.201,0.064-0.409,0.129-0.631,0.2c0.073-0.593,0.147-1.172,0.222-1.771c-0.047,0.016-0.08,0.026-0.112,0.04
			c-0.535,0.226-1.053,0.489-1.557,0.78C8.87,5.554,7.972,6.196,7.164,6.968C6.467,7.633,5.86,8.377,5.394,9.24
			c-0.381,0.704-0.644,1.453-0.767,2.252c-0.083,0.536-0.1,1.075-0.052,1.616C4.585,13.228,4.597,13.347,4.608,13.466z"/>
		<path id="Shape_3_" fill="#FFFFFF" d="M6.925,2.162c0,1.106,0,2.2,0,3.3C6.758,5.58,6.589,5.7,6.403,5.831
			c0-0.408,0-0.797,0-1.188C6.35,4.631,6.324,4.666,6.295,4.685c-0.399,0.268-0.781,0.561-1.15,0.873
			c-0.79,0.667-1.514,1.404-2.138,2.247C2.509,8.476,2.092,9.196,1.797,9.993c-0.302,0.816-0.446,1.661-0.399,2.538
			c0.02,0.383,0.08,0.758,0.174,1.128c0.004,0.015,0.007,0.031-0.002,0.052c-0.014-0.029-0.029-0.058-0.042-0.089
			c-0.156-0.372-0.251-0.762-0.313-1.163c-0.067-0.439-0.079-0.883-0.053-1.328C1.199,10.508,1.317,9.9,1.5,9.307
			c0.271-0.882,0.667-1.699,1.145-2.472c0.536-0.868,1.162-1.657,1.844-2.399C5.223,3.639,6.014,2.91,6.842,2.224
			C6.866,2.205,6.891,2.188,6.925,2.162z"/>
	</g>
</g>
</svg>
